<svg xmlns="http://www.w3.org/2000/svg" width="959" height="959"><path d="M440.896 1.075C271.526 15.101 122.183 117.138 48.026 269.5c-24.91 51.182-39.685 103.294-46.214 163-1.765 16.141-1.765 77.859 0 94 6.626 60.594 21.591 112.866 47.238 165 62.055 126.139 177.46 219.401 313.652 253.472 39.759 9.946 73.556 13.996 116.798 13.996 43.242 0 77.039-4.05 116.798-13.996 136.898-34.247 252.8-128.343 314.676-255.472 25.299-51.981 41.691-110.568 46.046-164.577.64-7.933 1.572-15.204 2.071-16.159 1.283-2.453 1.195-60.059-.091-59.264-.613.379-1.004-1.242-1.01-4.191-.025-12.696-4.989-47.326-10.038-70.027-16.531-74.338-49.017-140.676-98.812-201.782-13.522-16.594-46.827-49.887-63.64-63.617C706.76 45.579 616.965 9.238 516.5 1.014c-13.922-1.14-61.569-1.101-75.604.061M445 11.14C286.623 22.956 145.85 113.203 68.437 252.546 36.992 309.147 18.407 369.438 11.887 436c-1.416 14.455-1.756 59.735-.586 78 4.857 75.821 30.19 151.913 72.933 219.068 4.447 6.987 8.881 13.759 9.855 15.05l1.77 2.346 3.82-3.253c11.829-10.073 23.042-18.723 31.385-24.211 11.303-7.435 32.062-17.724 44.312-21.962l8.877-3.071 13.519 3.587c19.29 5.118 43.927 12.473 89.728 26.785 22 6.875 50.35 15.659 63 19.52 105.58 32.226 180.362 48.708 251 55.322 20.944 1.961 72.323 1.667 90.5-.519 52.413-6.301 94.941-22.71 128.032-49.399 11.116-8.965 32.181-31.125 42.578-44.789 47.38-62.272 78.206-143.419 85.462-224.974 3.253-36.565-5.537-98.405-20.733-145.863C878.542 185.246 756.544 68.326 602.136 25.969 554.785 12.98 495.423 7.378 445 11.14M.443 479.5c0 16.5.137 23.39.305 15.312.167-8.079.168-21.579 0-30C.581 456.39.444 463 .443 479.5" fill="#2fa6fe" fill-rule="evenodd"/><path d="M406 185.369c-8.084 1.766-14.447 5.353-20.097 11.327-14.85 15.702-15.11 40.133-.664 62.579 2.203 3.424 4.494 6.406 5.09 6.627.597.222-2.915 1.212-7.803 2.202-16.201 3.28-48.999 14.37-78.337 26.489-18.78 7.757-54.862 25.456-72.189 35.41-39.48 22.679-80.53 54.342-104.587 80.669-5.177 5.666-9.413 10.541-9.413 10.833 0 .293 8.213-3.724 18.25-8.926 21.908-11.354 61.676-30.409 85.75-41.087 74.579-33.08 127.043-48.12 161-46.156 12.099.7 19.667 2.525 28.933 6.978 12.01 5.771 31.036 27.202 36.189 40.764 2.046 5.386 2.518 12.922.808 12.922-.588 0-2.951-1.272-5.25-2.827-7.73-5.229-15.13-9.008-23.18-11.839-7.572-2.663-8.883-2.81-24.5-2.747-14.056.056-18.426.476-29.5 2.832-46.045 9.796-109.502 33.669-234.251 88.128-7.288 3.181-13.1 5.935-12.916 6.119.184.184 4.797-.377 10.251-1.247 13.69-2.185 47.638-2.94 67.566-1.503 58.521 4.221 105.131 18.337 150.35 45.533 21.683 13.04 38.319 25.21 74.5 54.497 27.224 22.037 44.058 35.035 58 44.782 33.252 23.247 68.212 40.265 104 50.626 11.024 3.192 34.642 8.722 36.733 8.602.422-.024-3.958-1.978-9.733-4.341-52.919-21.654-98.506-59.108-130.161-106.939-12.52-18.919-25.322-46.468-23.605-50.799.597-1.505 21.743-14.786 53.766-33.768 22.448-13.307 35.807-23.367 43.299-32.609 20.647-25.468 22.463-61.071 6.153-120.598-1.899-6.929-3.452-12.891-3.452-13.25 0-1.158 20.251-.693 36.16.831 39.373 3.772 82.903 14.326 117.34 28.449 5.5 2.255 26.65 13.04 47 23.966 20.35 10.925 38.5 20.624 40.334 21.553l3.335 1.688-4.252-6.32c-28.208-41.921-85.12-79.081-156.417-102.131-33.615-10.868-66-17.499-101-20.68-15.866-1.442-54.458-1.418-69.602.042-6.69.646-12.412.783-12.822.308-.406-.472-1.294-5.52-1.972-11.218-2.064-17.348-7.774-34.111-14.921-43.803-4.11-5.574-10.764-9.993-17.81-11.828-6.734-1.754-8.899-1.773-16.373-.14m465 425.417c-3.025 4.179-10.675 12.823-17 19.208-16.606 16.764-31.343 26.197-55.446 35.491a1825.641 1825.641 0 0 0-21.288 8.389c-17.978 7.247-38.132 12.318-62.766 15.793-18.203 2.567-76.913 2.569-99 .003-60.07-6.979-106.998-16.99-216.5-46.186-52.194-13.917-74.189-19.248-94.849-22.991-21.855-3.959-49.387-7.358-69.974-8.637-68.421-4.254-119.405 14.188-169.617 61.354l-8.94 8.397 6.848 12.947c8.665 16.382 17.948 32.081 26.754 45.246l6.889 10.299 5.695-5.208c27.704-25.338 59.927-42.137 98.565-51.386 38.059-9.111 60.662-11.955 89.129-11.215 31.009.805 49.255 4.63 112.5 23.584 74.26 22.256 122.779 31.812 183.868 36.212 20.966 1.511 73.837.624 91.132-1.528 59.28-7.378 99.854-22.647 135.457-50.979 26.471-21.066 46.619-43.802 56.823-64.122 3.353-6.678 8.364-21.158 7.584-21.917-.2-.194-2.839 3.066-5.864 7.246" fill="#fff" fill-rule="evenodd"/><path d="M488.25 250.735c2.613.206 6.887.206 9.5 0 2.613-.206.475-.375-4.75-.375s-7.363.169-4.75.375m22 0c2.612.206 6.888.206 9.5 0s.475-.375-4.75-.375-7.363.169-4.75.375M775.5 349c3.266 3.3 6.162 6 6.437 6 .275 0-2.171-2.7-5.437-6-3.266-3.3-6.162-6-6.437-6-.275 0 2.171 2.7 5.437 6m-639 114.623c-6.05.774-12.936 1.599-15.302 1.835-4.085.406-32.683 12.807-88.198 38.247l-21.5 9.852.3 5.971c.45 8.97 2.939 28.213 5.73 44.313 6.061 34.955 18.458 74.988 33.257 107.391l4.766 10.438 8.974-8.429c50.249-47.2 101.212-65.64 169.65-61.385 20.587 1.279 48.119 4.678 69.974 8.637 20.66 3.743 42.655 9.074 94.849 22.991 109.502 29.196 156.43 39.207 216.5 46.186 22.087 2.566 80.797 2.564 99-.003 24.306-3.428 44.459-8.467 62.562-15.643 10.246-4.062 15.472-6.629 11.438-5.619C751.489 677.673 734.924 680 705.976 680c-27.52 0-52.185-3.613-75.401-11.044-4.909-1.572-9.267-2.646-9.684-2.389-1.132.7-22.656-4.092-36.891-8.213-35.788-10.361-70.748-27.379-104-50.626-13.942-9.747-30.776-22.745-58-44.782-36.181-29.287-52.817-41.457-74.5-54.497-53.002-31.877-111.079-46.741-181.057-46.341-10.418.06-23.893.742-29.943 1.515M853 630.5c-4.097 4.125-7.225 7.5-6.95 7.5.275 0 3.853-3.375 7.95-7.5 4.097-4.125 7.225-7.5 6.95-7.5-.275 0-3.853 3.375-7.95 7.5m-22.538 43.75-4.962 5.25 5.25-4.962c2.888-2.73 5.25-5.092 5.25-5.25 0-.747-.926.084-5.538 4.962m-216.659 69.496c5.667.179 14.667.178 20-.001 5.333-.18.697-.326-10.303-.325-11 .001-15.364.148-9.697.326" fill="#e5eaf7" fill-rule="evenodd"/><path d="M445 11.14C286.623 22.956 145.85 113.203 68.437 252.546 37.004 309.124 18.834 368.005 11.822 436c-1.362 13.215-1.861 75.295-.614 76.541.389.39 18.614-7.407 40.5-17.325 195.31-88.511 284.74-122.449 335.204-127.208 22.291-2.102 38.723 2.204 57.739 15.13 3.576 2.431 4.236 2.598 4.77 1.208 1.678-4.374-3.308-16.616-10.933-26.846-11.562-15.512-23.918-24.99-37.81-29.002-41.5-11.987-121.685 13.006-252.594 78.731-17.278 8.675-31.596 15.592-31.817 15.372-.799-.8 30.823-32.391 41.392-41.35 44.787-37.968 103.663-71.45 168.841-96.019 19.221-7.245 37.607-13.163 50.5-16.254 5.225-1.252 10.087-2.43 10.805-2.617.915-.239.432-1.614-1.615-4.601-3.822-5.574-7.463-12.931-9.779-19.76-2.841-8.374-2.616-24.615.447-32.282C383.052 194.211 397.769 184 413.924 184c9.306 0 15.23 2.322 22.063 8.648 10.26 9.5 17.024 26.597 20.045 50.668l1.231 9.815 3.619-.583c8.101-1.306 28.507-2.517 42.618-2.53 28.223-.025 55.918 2.859 86.5 9.008 91.552 18.407 171.631 62.891 207.015 114.996 2.29 3.373 3.941 6.356 3.668 6.629-.631.63-.13.888-44.458-22.886-20.502-10.995-42.255-21.954-48.342-24.355-42.651-16.82-89.219-26.695-136.797-29.007-12.794-.622-14.347-.526-13.819.851 1.795 4.677 7.988 28.945 10.143 39.746 6.39 32.019 5.845 57.653-1.602 75.332-8.767 20.814-21.296 31.878-65.308 57.675-20.618 12.085-43.5 26.488-43.5 27.381 0 .249 1.402 4.426 3.116 9.282 13.31 37.717 48.275 81.947 88.783 112.311 37.297 27.957 81.455 45.989 126.071 51.483 24.658 3.037 58.841 1.659 85.03-3.426 44.19-8.58 70.981-21.799 95.389-47.062 5.625-5.822 12.882-14.256 16.126-18.741 3.244-4.486 6.068-7.986 6.275-7.778.207.207-.563 3.803-1.712 7.99-4.553 16.597-16.515 35.527-33.98 53.774-46.159 48.226-93.25 69.813-171.098 78.433-21.395 2.369-72.357 2.37-98 .003-56.695-5.236-102.783-14.81-174-36.145-53.008-15.881-72.489-20.361-98.234-22.593-21.433-1.858-47.466.095-75.766 5.684-18.922 3.737-39 8.671-39 9.584 0 .447.611.813 1.358.813 2.675 0 44.757 12.129 78.142 22.523 122.082 38.007 157.09 48.144 205.129 59.397 48.584 11.38 90.127 18.446 130.871 22.261 20.944 1.961 72.323 1.667 90.5-.519 52.413-6.301 94.941-22.71 128.032-49.399 11.116-8.965 32.181-31.125 42.578-44.789 47.38-62.272 78.206-143.419 85.462-224.974 3.253-36.565-5.537-98.405-20.733-145.863C878.542 185.246 756.544 68.326 602.136 25.969 554.785 12.98 495.423 7.378 445 11.14" fill="#a314a4" fill-rule="evenodd"/></svg>